	<svg xmlns="http://www.w3.org/2000/svg" viewBox="0 -1000 5650 1240">
  <!-- Mark -->
  <g fill="#0d4e36" transform="translate(0, 130) scale(0.5051, -0.5051) translate(0, 198)">
    <path d="M963 1939 c-45 -23 -94 -52 -109 -64 -32 -25 -35 -69 -8 -90 11 -8
159 -90 329 -184 518 -285 587 -325 602 -347 12 -20 12 -24 -9 -47 -22 -24
-530 -312 -605 -343 -24 -11 -57 -15 -93 -12 -48 4 -84 20 -290 134 -129 72
-272 151 -318 175 -86 46 -110 76 -81 104 20 20 226 125 245 125 20 0 278
-136 294 -155 16 -19 7 -31 -41 -56 -33 -17 -40 -24 -37 -46 2 -21 20 -35 88
-74 104 -60 139 -70 185 -58 31 9 303 157 332 181 17 13 17 89 1 110 -7 9
-125 78 -263 153 -137 76 -308 169 -380 209 -192 105 -174 108 -500 -75 -230
-129 -263 -150 -283 -185 -22 -39 -22 -41 -20 -415 l3 -376 26 -34 c15 -19 60
-52 100 -75 288 -160 823 -452 867 -472 80 -36 126 -29 259 44 765 421 863
477 882 508 43 69 39 215 -6 260 -14 15 -37 26 -51 26 -29 0 -172 -76 -617
-329 l-310 -176 -70 0 -70 0 -225 126 c-124 70 -276 155 -338 189 -116 65
-142 88 -142 127 0 33 36 66 63 57 20 -6 315 -166 537 -290 100 -56 108 -59
175 -59 l70 0 230 131 c127 72 344 193 484 270 193 105 258 145 272 169 16 25
19 51 19 158 0 143 -8 170 -62 210 -18 13 -242 138 -497 277 -372 203 -473
254 -510 258 -39 3 -58 -2 -128 -39z"/>
  </g>
  <!-- Wordmark -->
  <g fill="#2d393e" transform="translate(1295, -200) scale(1, -1)">
    <path d="M261 -10Q192 -10 138.5 23.0Q85 56 54.5 113.0Q24 170 24 243Q24 316 54.5 373.0Q85 430 138.5 463.0Q192 496 261 496Q311 496 351.5 477.0Q392 458 418.5 424.5Q445 391 448 348V143Q445 100 419.0 65.5Q393 31 352.0 10.5Q311 -10 261 -10ZM288 128Q321 128 345.0 142.5Q369 157 383.0 183.0Q397 209 397 243Q397 277 383.5 302.5Q370 328 345.5 343.0Q321 358 289 358Q257 358 232.5 343.0Q208 328 193.5 302.0Q179 276 179 243Q179 210 193.0 184.0Q207 158 232.0 143.0Q257 128 288 128ZM541 0H391V131L414 249L388 367V726H541Z" transform="translate(0, 0)"/>
    <path d="M294 -11Q215 -11 153.5 21.5Q92 54 57.0 112.0Q22 170 22 243Q22 316 56.5 373.5Q91 431 150.0 464.0Q209 497 283 497Q355 497 410.0 466.0Q465 435 496.5 380.0Q528 325 528 254Q528 241 526.5 226.5Q525 212 521 193L102 192V297L456 298L390 254Q389 296 377.0 323.5Q365 351 341.5 365.5Q318 380 284 380Q248 380 221.5 363.5Q195 347 180.5 317.0Q166 287 166 244Q166 201 181.5 170.5Q197 140 225.5 123.5Q254 107 293 107Q329 107 358.0 119.5Q387 132 409 157L493 73Q457 31 406.0 10.0Q355 -11 294 -11Z" transform="translate(595, 0)"/>
    <path d="M289 -11Q214 -11 153.0 22.0Q92 55 57.0 113.0Q22 171 22 243Q22 316 57.5 373.5Q93 431 154.0 464.0Q215 497 291 497Q348 497 395.5 477.5Q443 458 480 419L382 321Q365 340 342.5 349.0Q320 358 291 358Q258 358 232.5 343.5Q207 329 192.5 303.5Q178 278 178 244Q178 210 192.5 184.0Q207 158 233.0 143.0Q259 128 291 128Q321 128 344.5 138.5Q368 149 385 168L482 70Q444 30 396.0 9.5Q348 -11 289 -11Z" transform="translate(1143, 0)"/>
    <path d="M365 0 195 252 364 486H535L331 223L336 286L545 0ZM54 0V726H207V0Z" transform="translate(1639, 0)"/>
    <path d="M204 -2 4 486H169L296 99H235L365 486H530L322 -2ZM79 -205 225 110 322 -2 236 -205Z" transform="translate(2185, 0)"/>
    <path d="M257 -10Q190 -10 137.5 23.0Q85 56 54.5 113.0Q24 170 24 243Q24 316 54.5 373.0Q85 430 137.5 463.0Q190 496 257 496Q306 496 345.5 477.0Q385 458 410.0 424.5Q435 391 438 348V138Q435 95 410.5 61.5Q386 28 346.0 9.0Q306 -10 257 -10ZM288 128Q337 128 367.0 160.5Q397 193 397 243Q397 277 383.5 303.0Q370 329 345.5 343.5Q321 358 289 358Q257 358 232.5 343.5Q208 329 193.5 303.0Q179 277 179 243Q179 210 193.0 184.0Q207 158 232.0 143.0Q257 128 288 128ZM391 0V131L414 249L391 367V486H541V0Z" transform="translate(2719, 0)"/>
    <path d="M54 0V486H207V0ZM207 267 143 317Q162 402 207.0 449.0Q252 496 332 496Q367 496 393.5 485.5Q420 475 440 453L349 338Q339 349 324.0 355.0Q309 361 290 361Q252 361 229.5 337.5Q207 314 207 267Z" transform="translate(3314, 0)"/>
    <path d="M261 -10Q192 -10 138.5 23.0Q85 56 54.5 113.0Q24 170 24 243Q24 316 54.5 373.0Q85 430 138.5 463.0Q192 496 261 496Q311 496 351.5 477.0Q392 458 418.5 424.5Q445 391 448 348V143Q445 100 419.0 65.5Q393 31 352.0 10.5Q311 -10 261 -10ZM288 128Q321 128 345.0 142.5Q369 157 383.0 183.0Q397 209 397 243Q397 277 383.5 302.5Q370 328 345.5 343.0Q321 358 289 358Q257 358 232.5 343.0Q208 328 193.5 302.0Q179 276 179 243Q179 210 193.0 184.0Q207 158 232.0 143.0Q257 128 288 128ZM541 0H391V131L414 249L388 367V726H541Z" transform="translate(3758, 0)"/>
  </g>
</svg>
