<svg xmlns="http://www.w3.org/2000/svg" viewBox="0 0 217 198" width="217" height="198">
  <g transform="translate(0,198) scale(0.1,-0.1)" fill="#0d4e36" stroke="none">
    <path d="M963 1939 c-45 -23 -94 -52 -109 -64 -32 -25 -35 -69 -8 -90 11 -8
159 -90 329 -184 518 -285 587 -325 602 -347 12 -20 12 -24 -9 -47 -22 -24
-530 -312 -605 -343 -24 -11 -57 -15 -93 -12 -48 4 -84 20 -290 134 -129 72
-272 151 -318 175 -86 46 -110 76 -81 104 20 20 226 125 245 125 20 0 278
-136 294 -155 16 -19 7 -31 -41 -56 -33 -17 -40 -24 -37 -46 2 -21 20 -35 88
-74 104 -60 139 -70 185 -58 31 9 303 157 332 181 17 13 17 89 1 110 -7 9
-125 78 -263 153 -137 76 -308 169 -380 209 -192 105 -174 108 -500 -75 -230
-129 -263 -150 -283 -185 -22 -39 -22 -41 -20 -415 l3 -376 26 -34 c15 -19 60
-52 100 -75 288 -160 823 -452 867 -472 80 -36 126 -29 259 44 765 421 863
477 882 508 43 69 39 215 -6 260 -14 15 -37 26 -51 26 -29 0 -172 -76 -617
-329 l-310 -176 -70 0 -70 0 -225 126 c-124 70 -276 155 -338 189 -116 65
-142 88 -142 127 0 33 36 66 63 57 20 -6 315 -166 537 -290 100 -56 108 -59
175 -59 l70 0 230 131 c127 72 344 193 484 270 193 105 258 145 272 169 16 25
19 51 19 158 0 143 -8 170 -62 210 -18 13 -242 138 -497 277 -372 203 -473
254 -510 258 -39 3 -58 -2 -128 -39z"/>
  </g>
</svg>
